# xmcd
#
# Track frame offsets: 
#        150
#        13349
#        25646
#        37288
#        48862
#        62142
#        75749
#        87531
#        99959
#        112673
#        125692
#        139024
#        152151
#        167207
#        178768
#        199865
#        214880
#        230421
#        250808
#
# Disc length: 3549 seconds
#
# Revision: 2
# Processed by: cddbd v1.5.2PL0 Copyright (c) Steve Scherf et al.
# Submitted via: ExactAudioCopy v0.99pb4
#
DISCID=060ddb13
DTITLE=Big Bill Broonzy - The Southern Blues, CD 4
DYEAR=2005
DGENRE=Jazz
TTITLE0=Hell Ain't But A Mile And A Quarter
TTITLE1=Baby, Don't You Remember?
TTITLE2=Mary Blues
TTITLE3=Too Many Drivers
TTITLE4=That's All Right, Baby
TTITLE5=L.C. Blues
TTITLE6=My Last Goodbye To You
TTITLE7=Don't You Be No Fool
TTITLE8=Just A Dream
TTITLE9=Down And Lost In Mind
TTITLE10=Plow Hand Blues
TTITLE11=Jivin' Mr Fuller Blues
TTITLE12=House Rent Stomp
TTITLE13=Willie Mae Blues
TTITLE14=Back Water Blues
TTITLE15=How Long Blues
TTITLE16=Guitar Shuffle
TTITLE17=Louise, Louise Blues
TTITLE18=Big Bill Blues
EXTD=YEAR: 2005
EXTT0=
EXTT1=
EXTT2=
EXTT3=
EXTT4=
EXTT5=
EXTT6=
EXTT7=
EXTT8=
EXTT9=
EXTT10=
EXTT11=
EXTT12=
EXTT13=
EXTT14=
EXTT15=
EXTT16=
EXTT17=
EXTT18=
PLAYORDER=
